HIERARCHY
ROOT root
{
	OFFSET	0	13.1	24.9
	CHANNELS 6  Xposition Yposition Zposition Xrotation Yrotation Zrotation
	JOINT spine_1
	{
		OFFSET	0	9.99999	0
		CHANNELS 3  Xrotation Yrotation Zrotation
		JOINT spine_2
		{
			OFFSET	0	112	-10
			CHANNELS 3  Xrotation Yrotation Zrotation
			JOINT spine_3
			{
				OFFSET	0	206.5	19.3
				CHANNELS 3  Xrotation Yrotation Zrotation
				JOINT spine_4
				{
					OFFSET	0	110.4	14.6
					CHANNELS 3  Xrotation Yrotation Zrotation
					JOINT neck_1
					{
						OFFSET	0	71.8	-50.3
						CHANNELS 3  Xrotation Yrotation Zrotation
						JOINT neck_2
						{
							OFFSET	0	86.2	-25.8
							CHANNELS 3  Xrotation Yrotation Zrotation
							JOINT head_ee
							{
								OFFSET	0	179.8	-8.7
								CHANNELS 3  Xrotation Yrotation Zrotation
								End Site
								{
									OFFSET	1	0	0
								}
							}
						}
					}
					JOINT left_clavicle
					{
						OFFSET	-43.2	22.4	-70.8
						CHANNELS 3  Xrotation Yrotation Zrotation
						JOINT left_shoulder
						{
							OFFSET	-93.9	-5.79999	48.7
							CHANNELS 3  Xrotation Yrotation Zrotation
							JOINT left_elbow
							{
								OFFSET	-291.4	-30.8	15.2
								CHANNELS 3  Xrotation Yrotation Zrotation
								JOINT left_lowarm_twist
								{
									OFFSET	-110.7	-3.89999	13.6
									CHANNELS 3  Xrotation Yrotation Zrotation
									JOINT left_hand
									{
										OFFSET	-110.7	-3.89999	13.6
										CHANNELS 3  Xrotation Yrotation Zrotation
										JOINT left_ee
										{
											OFFSET	-80.8	-5.10001	12.1
											CHANNELS 3  Xrotation Yrotation Zrotation
											End Site
											{
												OFFSET	1	0	0
											}
										}
									}
								}
							}
						}
					}
					JOINT right_clavicle
					{
						OFFSET	43.2	22.4	-70.8
						CHANNELS 3  Xrotation Yrotation Zrotation
						JOINT right_shoulder
						{
							OFFSET	93.9	-5.79999	48.7
							CHANNELS 3  Xrotation Yrotation Zrotation
							JOINT right_elbow
							{
								OFFSET	291.4	-30.8	15.2
								CHANNELS 3  Xrotation Yrotation Zrotation
								JOINT right_lowarm_twist
								{
									OFFSET	110.7	-3.89999	13.6
									CHANNELS 3  Xrotation Yrotation Zrotation
									JOINT right_hand
									{
										OFFSET	110.7	-3.89999	13.6
										CHANNELS 3  Xrotation Yrotation Zrotation
										JOINT right_ee
										{
											OFFSET	80.8	-5.10001	12.1
											CHANNELS 3  Xrotation Yrotation Zrotation
											End Site
											{
												OFFSET	1	0	0
											}
										}
									}
								}
							}
						}
					}
				}
			}
		}
	}
	JOINT left_hip
	{
		OFFSET	-82.8	-127.5	0.300001
		CHANNELS 3  Xrotation Yrotation Zrotation
		JOINT left_knee
		{
			OFFSET	-28.2	-396.7	2.2
			CHANNELS 3  Xrotation Yrotation Zrotation
			JOINT left_ankle
			{
				OFFSET	-11.7	-411.3	35.4
				CHANNELS 3  Xrotation Yrotation Zrotation
				JOINT left_toes
				{
					OFFSET	0	-60	-88.6
					CHANNELS 3  Xrotation Yrotation Zrotation
					JOINT left_foot_ee
					{
						OFFSET	-22.5	-16.5	-42.2
						CHANNELS 3  Xrotation Yrotation Zrotation
						End Site
						{
							OFFSET	1	0	0
						}
					}
				}
			}
		}
	}
	JOINT right_hip
	{
		OFFSET	82.8	-127.5	0.300001
		CHANNELS 3  Xrotation Yrotation Zrotation
		JOINT right_knee
		{
			OFFSET	28.2	-396.7	2.2
			CHANNELS 3  Xrotation Yrotation Zrotation
			JOINT right_ankle
			{
				OFFSET	11.7	-411.3	35.4
				CHANNELS 3  Xrotation Yrotation Zrotation
				JOINT right_toes
				{
					OFFSET	0	-60	-88.6
					CHANNELS 3  Xrotation Yrotation Zrotation
					JOINT right_foot_ee
					{
						OFFSET	22.5	-16.5	-42.2
						CHANNELS 3  Xrotation Yrotation Zrotation
						End Site
						{
							OFFSET	1	0	0
						}
					}
				}
			}
		}
	}
}
MOTION
Frames: 13
Frame Time: 0.02
1233.04507736 735.094 -1738.235868 -7.99516265701 27.3361676626 6.53986367435 0.733389 -0.279412 -2.14757 0.735944 -0.142222 -2.16099 0.742103 0.287467 -2.14651 0.735677 -0.0550595 -2.16496 0.384041 16.0025 8.58037 0.823015 21.4511 10.7794 -0.0 0.0 -0.0 10.1372 4.13511 19.6739 -27.8993 -8.15182 59.4411 0.839035 -22.5692 0.167424 -3.42968 -0.133396 0.417531 -0.585613 3.15863 -2.548 -0.0 0.0 -0.0 10.9332 8.6132 -21.8895 -24.6333 34.3003 -38.9101 1.28095 32.3956 -0.372112 49.2301 0.914247 6.03123 -0.62377 2.66749 5.32519 0.0 0.0 0.0 34.096 -13.5534 -2.00616 -68.6245 -3.1996 9.4028 37.3991 0.896308 -4.63894 -4.5066 0.0 0.0 -0.0 0.0 -0.0 22.2927 -4.67748 -3.50448 -23.5493 -0.236637 -3.58071 36.536 11.2751 4.74284 -6.56925 0.0 0.0 0.0 0.0 0.0 
1216.18778935 745.336 -1763.24593933 -8.63081742621 28.9324014473 7.46661822119 0.839022 -0.20675 -2.19319 0.841696 -0.0668078 -2.20189 0.844948 0.365633 -2.17236 0.838363 0.018047 -2.20283 0.661463 15.5774 8.02004 1.07949 21.0722 10.116 -0.0 0.0 -0.0 10.4946 4.73893 20.3385 -29.4427 -7.33945 58.9396 0.700005 -19.1246 0.117925 -3.27575 -0.126874 0.398965 -0.401378 3.43817 -1.20974 -0.0 0.0 -0.0 10.5564 9.40851 -21.0592 -22.3497 36.1436 -37.8644 1.59035 38.2287 -0.551185 49.0894 0.904395 6.01615 -0.623497 5.07317 6.3648 0.0 0.0 0.0 40.5746 -12.19 -2.67833 -69.02 -3.24853 9.43936 36.6258 -0.0409483 -4.57387 -5.26805 0.0 0.0 -0.0 0.0 -0.0 20.1824 -10.4458 -3.72681 -22.0603 -0.265473 -3.35405 36.4128 9.50449 4.69026 -7.68772 0.0 0.0 0.0 0.0 0.0 
1216.5769002 745.336 -1763.45616302 -8.62441139348 28.855901095 7.45336051444 0.839022 -0.20675 -2.19319 0.841696 -0.0668078 -2.20189 0.844948 0.365633 -2.17236 0.838363 0.018047 -2.20283 0.661463 15.5774 8.02004 1.07949 21.0722 10.116 -0.0 0.0 -0.0 10.4946 4.73893 20.3385 -29.4427 -7.33945 58.9396 0.700005 -19.1246 0.117925 -3.27575 -0.126874 0.398965 -0.401378 3.43817 -1.20974 -0.0 0.0 -0.0 10.5564 9.40851 -21.0592 -22.3497 36.1436 -37.8644 1.59035 38.2287 -0.551185 49.0894 0.904395 6.01615 -0.623497 5.07317 6.3648 0.0 0.0 0.0 40.5746 -12.19 -2.67833 -69.02 -3.24853 9.43936 36.6258 -0.0409483 -4.57387 -5.26805 0.0 0.0 -0.0 0.0 -0.0 20.1824 -10.4458 -3.72681 -22.0603 -0.265473 -3.35405 36.4128 9.50449 4.69026 -7.68772 0.0 0.0 0.0 0.0 0.0 
1200.05947086 746.563 -1765.55103576 -9.0117434855 31.0077799579 8.02182480422 0.893938 -0.297481 -2.20222 0.896623 -0.15678 -2.21668 0.903417 0.277985 -2.20477 0.896641 -0.0736169 -2.22099 0.606748 15.5988 8.16721 1.02553 21.0037 10.2816 -0.0 0.0 -0.0 10.4985 4.88642 20.3332 -29.9401 -7.09186 58.6966 0.647159 -17.7751 0.1012 -2.91674 -0.111857 0.355597 -0.307876 3.51574 -0.559108 -0.0 0.0 -0.0 10.8572 9.5919 -21.7221 -20.5568 35.6897 -37.1383 1.54938 37.5042 -0.526035 49.0182 0.899423 6.00851 -0.598798 6.42109 6.77931 0.0 0.0 0.0 42.6302 -12.3361 -2.54441 -69.0515 -3.25244 9.44227 36.3464 -0.158942 -4.54863 -5.46383 0.0 0.0 -0.0 0.0 -0.0 19.3645 -11.0894 -4.40937 -20.251 -0.292571 -3.07775 36.6127 9.20159 4.70268 -7.89261 0.0 0.0 0.0 0.0 0.0 
1181.44132653 746.117 -1774.59709791 -9.28952138067 31.8834729392 8.15856677592 0.80649 -0.238297 -2.15735 0.809073 -0.100569 -2.16813 0.813594 0.327061 -2.14569 0.807169 -0.0158322 -2.1704 -1.06236 14.8096 7.44587 -0.724815 20.6543 9.60014 -0.0 0.0 -0.0 10.4839 5.38144 20.2595 -31.393 -7.07359 59.3067 0.611923 -16.8637 0.0907093 -3.17446 -0.122609 0.386738 -0.304362 3.58611 -0.506048 -0.0 0.0 -0.0 10.8121 9.93658 -21.621 -18.0261 35.7907 -36.673 1.68108 39.7828 -0.608296 48.5074 0.864038 5.95351 -0.437912 6.95967 5.91876 0.0 0.0 0.0 45.2433 -11.835 -2.73094 -65.3168 -2.80062 9.08404 31.8438 0.671363 -4.09912 -7.19177 0.0 0.0 -0.0 0.0 -0.0 15.5236 -14.0524 -4.84341 -13.4804 -0.316329 -2.03981 38.5977 9.15079 4.88423 -10.3002 0.0 0.0 0.0 0.0 0.0 
1143.30720454 739.569 -1797.13726174 -8.45667535495 35.0514992604 8.35665099059 0.834125 -0.214009 -2.02446 0.836402 -0.0847806 -2.03397 0.840017 0.315266 -2.01119 0.834372 -0.0062515 -2.03573 -1.89638 13.8734 6.37985 -1.62853 20.0295 8.46522 -0.0 0.0 -0.0 10.416 5.79962 20.0864 -34.4141 -7.92837 59.5579 0.492277 -13.7048 0.0591577 -2.40862 -0.0910686 0.29406 0.164884 2.15413 1.99967 -0.0 0.0 -0.0 10.9551 10.0436 -21.9372 -14.5354 35.0947 -35.9418 1.71553 40.3552 -0.630473 47.0522 0.765951 5.79515 0.255291 11.3476 3.10192 0.0 0.0 0.0 49.3015 -13.7001 -6.39256 -56.8329 -1.86788 8.16737 25.7438 1.06275 -3.43226 -9.43513 0.0 0.0 -0.0 0.0 -0.0 9.9113 -13.2295 -6.11692 -5.74274 -0.193486 -0.859736 39.2227 12.1863 5.01347 -12.5497 0.0 0.0 0.0 0.0 0.0 
1124.75519536 734.96 -1802.29939372 -9.16938745723 36.8542080142 9.34219660115 1.04672 -0.312373 -2.1505 1.04928 -0.174931 -2.16601 1.0565 0.244522 -2.15927 1.05 -0.0994793 -2.17078 -2.67442 13.4388 6.75584 -2.43575 19.1277 8.88939 -0.0 0.0 -0.0 10.2377 5.82233 19.7327 -34.9639 -6.78466 60.0953 0.487571 -13.5787 0.0580478 -2.97045 -0.114086 0.362091 0.0547046 3.21939 1.7124 -0.0 0.0 -0.0 11.0057 9.89677 -22.0503 -12.6656 34.9957 -35.4193 1.75036 40.9241 -0.653156 47.2109 0.776449 5.81254 0.204122 10.5872 3.12249 0.0 0.0 0.0 49.8194 -14.2474 -7.2975 -52.9822 -1.49169 7.70843 24.7492 0.644136 -3.31991 -10.2943 0.0 0.0 -0.0 0.0 -0.0 7.96518 -13.9077 -6.53532 -3.81112 -0.138047 -0.568491 39.601 11.9327 5.04015 -12.6802 0.0 0.0 0.0 0.0 0.0 
1104.99328195 734.155 -1808.63827507 -9.96924179597 38.6522148841 10.4559750514 1.20888 -0.309683 -2.19561 1.21155 -0.169378 -2.21085 1.21859 0.252364 -2.20293 1.21183 -0.0986269 -2.21514 -3.60627 12.1356 7.14514 -3.40979 16.6557 9.20353 -0.0 0.0 -0.0 10.0905 5.49304 19.4715 -35.3516 -6.54509 60.7276 0.41509 -11.6196 0.0422352 -1.94395 -0.0725374 0.237627 0.417518 3.65155 4.29098 -0.0 0.0 -0.0 10.9162 9.87801 -21.8518 -11.6567 34.4445 -36.6202 1.77302 41.2891 -0.668054 45.5248 0.667377 5.62635 0.422002 12.3044 2.38665 0.0 0.0 0.0 50.0979 -14.0329 -7.42458 -49.7188 -1.19777 7.30072 23.8828 1.83792 -3.21199 -11.2928 0.0 0.0 -0.0 0.0 -0.0 7.33717 -8.79879 -5.64595 -5.25985 -0.180548 -0.786758 39.6292 14.2362 5.10871 -9.74785 0.0 0.0 0.0 0.0 0.0 
1085.36701022 730.348 -1820.12859742 -10.1283012655 39.5645704852 11.1607003136 1.23194 -0.3101 -2.22414 1.23467 -0.16798 -2.23936 1.24174 0.258238 -2.23076 1.2348 -0.0972175 -2.24354 -4.31055 12.1014 6.2353 -4.1513 17.4511 8.33989 -0.0 0.0 -0.0 10.1837 5.70829 19.6366 -35.9823 -6.04127 60.5106 0.385996 -10.8251 0.036573 -2.09708 -0.0785935 0.25624 0.378468 3.55695 3.99382 -0.0 0.0 -0.0 10.8266 9.96537 -21.6528 -10.7413 34.1106 -36.7651 1.79256 41.6006 -0.680989 46.0884 0.703222 5.68893 0.59341 13.2306 1.62983 0.0 0.0 0.0 50.7362 -14.3114 -7.6334 -45.4382 -0.848479 6.74218 21.6677 1.0311 -2.95107 -11.7067 0.0 0.0 -0.0 0.0 -0.0 5.20281 -13.0323 -7.30601 -2.35576 -0.0898026 -0.350353 39.3768 16.0575 5.14554 -11.0742 0.0 0.0 0.0 0.0 0.0 
1080.8282555 730.348 -1816.30499341 -10.2405412775 40.3107889749 11.3355377312 1.23194 -0.3101 -2.22414 1.23467 -0.16798 -2.23936 1.24174 0.258238 -2.23076 1.2348 -0.0972175 -2.24354 -4.31055 12.1014 6.2353 -4.1513 17.4511 8.33989 -0.0 0.0 -0.0 10.1837 5.70829 19.6366 -35.9823 -6.04127 60.5106 0.385996 -10.8251 0.036573 -2.09708 -0.0785935 0.25624 0.378468 3.55695 3.99382 -0.0 0.0 -0.0 10.8266 9.96537 -21.6528 -10.7413 34.1106 -36.7651 1.79256 41.6006 -0.680989 46.0884 0.703222 5.68893 0.59341 13.2306 1.62983 0.0 0.0 0.0 50.7362 -14.3114 -7.6334 -45.4382 -0.848479 6.74218 21.6677 1.0311 -2.95107 -11.7067 0.0 0.0 -0.0 0.0 -0.0 5.20281 -13.0323 -7.30601 -2.35576 -0.0898026 -0.350353 39.3768 16.0575 5.14554 -11.0742 0.0 0.0 0.0 0.0 0.0 
1074.67571024 730.348 -1810.95443225 -10.4017706812 41.3355879079 11.5821587735 1.23194 -0.3101 -2.22414 1.23467 -0.16798 -2.23936 1.24174 0.258238 -2.23076 1.2348 -0.0972175 -2.24354 -4.31055 12.1014 6.2353 -4.1513 17.4511 8.33989 -0.0 0.0 -0.0 10.1837 5.70829 19.6366 -35.9823 -6.04127 60.5106 0.385996 -10.8251 0.036573 -2.09708 -0.0785935 0.25624 0.378468 3.55695 3.99382 -0.0 0.0 -0.0 10.8266 9.96537 -21.6528 -10.7413 34.1106 -36.7651 1.79256 41.6006 -0.680989 46.0884 0.703222 5.68893 0.59341 13.2306 1.62983 0.0 0.0 0.0 50.7362 -14.3114 -7.6334 -45.4382 -0.848479 6.74218 21.6677 1.0311 -2.95107 -11.7067 0.0 0.0 -0.0 0.0 -0.0 5.20281 -13.0323 -7.30601 -2.35576 -0.0898026 -0.350353 39.3768 16.0575 5.14554 -11.0742 0.0 0.0 0.0 0.0 0.0 
1060.39902751 732.17 -1819.92912734 -10.8960969381 42.1585050344 12.2402650198 1.33643 -0.276883 -2.21884 1.33916 -0.135167 -2.23195 1.34482 0.285091 -2.2178 1.33796 -0.0686561 -2.23498 -4.50508 12.3338 5.47881 -4.36253 18.4974 7.63044 -0.0 0.0 -0.0 10.2234 5.53837 19.7296 -36.1346 -5.80561 60.6427 0.34576 -9.71947 0.0293975 -1.81156 -0.0673412 0.221522 0.584321 4.28079 5.65019 -0.0 0.0 -0.0 10.9322 9.97632 -21.8868 -10.164 33.8096 -37.4511 1.76135 41.1016 -0.660366 44.9244 0.629864 5.55928 0.785355 14.3371 0.817039 0.0 0.0 0.0 47.2091 -15.3981 -7.8352 -29.5624 0.0605785 4.48632 17.1006 0.10286 -2.38411 -14.6824 0.0 0.0 -0.0 0.0 -0.0 5.99601 -12.8217 -7.03047 -6.72482 -0.217897 -1.00847 38.8746 18.2149 5.17855 -7.57204 0.0 0.0 0.0 0.0 0.0 
1056.19221905 732.17 -1816.07858261 -11.0185854858 42.848839109 12.4215549528 1.33643 -0.276883 -2.21884 1.33916 -0.135167 -2.23195 1.34482 0.285091 -2.2178 1.33796 -0.0686561 -2.23498 -4.50508 12.3338 5.47881 -4.36253 18.4974 7.63044 -0.0 0.0 -0.0 10.2234 5.53837 19.7296 -36.1346 -5.80561 60.6427 0.34576 -9.71947 0.0293975 -1.81156 -0.0673412 0.221522 0.584321 4.28079 5.65019 -0.0 0.0 -0.0 10.9322 9.97632 -21.8868 -10.164 33.8096 -37.4511 1.76135 41.1016 -0.660366 44.9244 0.629864 5.55928 0.785355 14.3371 0.817039 0.0 0.0 0.0 47.2091 -15.3981 -7.8352 -29.5624 0.0605785 4.48632 17.1006 0.10286 -2.38411 -14.6824 0.0 0.0 -0.0 0.0 -0.0 5.99601 -12.8217 -7.03047 -6.72482 -0.217897 -1.00847 38.8746 18.2149 5.17855 -7.57204 0.0 0.0 0.0 0.0 0.0 
